<?xml version="1.0" encoding="utf-8"?>
<!-- Generator: Adobe Illustrator 26.0.3, SVG Export Plug-In . SVG Version: 6.00 Build 0)  -->
<svg version="1.1" id="Layer_1" xmlns="http://www.w3.org/2000/svg" xmlns:xlink="http://www.w3.org/1999/xlink" x="0px" y="0px"
	 viewBox="0 0 284.9 78" style="enable-background:new 0 0 284.9 78;" xml:space="preserve">
<style type="text/css">
	.st0{fill:#FC5654;}
	.st1{fill:#F8F8F8;}
	.st2{fill:#FFFFFF;}
</style>
<g>
	<path class="st0" d="M23.7,0.7l-23,56h9.8l4.3-10.8h24.1l4.3,10.8H53l-22.9-56H23.7z M18,37.9l8.9-22.3l8.8,22.3H18z"/>
	<rect x="59.9" y="18.3" class="st0" width="8.8" height="38.4"/>
	<path class="st0" d="M64.3,0.7c-1.5,0-2.7,0.5-3.7,1.5c-1,1-1.5,2.3-1.5,3.8s0.5,2.7,1.5,3.8c1,1,2.2,1.5,3.7,1.5
		c1.5,0,2.8-0.5,3.8-1.5c1-1,1.4-2.3,1.4-3.8S69,3.2,68.1,2.2C67.1,1.2,65.8,0.7,64.3,0.7z"/>
	<path class="st0" d="M150.4,20c-2.7-1.7-5.9-2.5-9.5-2.5c-3.7,0-7,0.9-10,2.6c-3,1.8-5.4,4.1-7.2,7.2c-1.8,3-2.6,6.4-2.6,10.2
		s0.9,7.2,2.7,10.2c1.8,3,4.2,5.4,7.3,7.2c3.1,1.7,6.5,2.6,10.4,2.6c3,0,5.8-0.6,8.5-1.7c2.7-1.1,4.9-2.8,6.8-5l-5.6-5.7
		c-1.2,1.3-2.6,2.3-4.3,3c-1.7,0.7-3.5,1-5.5,1c-2.3,0-4.3-0.5-6.1-1.5c-1.8-1-3.1-2.4-4.1-4.2c-0.5-0.9-0.8-1.8-1-2.8h28.6
		c0.2-0.8,0.3-1.5,0.4-2.2c0.1-0.7,0.1-1.3,0.1-2c0-3.7-0.8-7-2.4-9.8C155.3,23.9,153.1,21.6,150.4,20z M130.2,33.6
		c0.2-0.9,0.5-1.8,0.9-2.5c0.9-1.7,2.2-3.1,3.8-4c1.7-1,3.6-1.4,5.8-1.4c2.1,0,3.9,0.4,5.4,1.3c1.5,0.9,2.6,2.1,3.4,3.7
		c0.4,0.9,0.8,1.9,1,3H130.2z"/>
	<path class="st0" d="M194.2,19.7c-2.2-1.5-4.8-2.2-7.7-2.2c-2.8,0-5.4,0.7-7.6,2c-1.5,0.9-2.7,1.9-3.8,3.2v-4.4h-8.8v38.4h8.8V34.5
		c0-1.7,0.4-3.2,1.1-4.6c0.7-1.3,1.8-2.4,3.1-3.1c1.3-0.7,2.9-1.1,4.6-1.1c2.6,0,4.7,0.8,6.3,2.5c1.6,1.7,2.4,3.8,2.4,6.3v22.2h8.8
		V32.6c0-2.5-0.6-4.9-1.9-7.2C198.2,23.1,196.4,21.2,194.2,19.7z"/>
	<path class="st0" d="M222.2,27.5c1.7-1,3.6-1.5,5.8-1.5c1.9,0,3.6,0.3,5.2,1c1.6,0.7,2.9,1.7,4,3l5.8-5.8c-1.8-2.1-4-3.8-6.6-4.9
		c-2.6-1.1-5.4-1.7-8.4-1.7c-3.8,0-7.2,0.9-10.3,2.6c-3.1,1.8-5.5,4.1-7.2,7.2c-1.8,3-2.6,6.4-2.6,10.2c0,3.7,0.9,7.1,2.6,10.2
		c1.8,3,4.2,5.4,7.2,7.2c3.1,1.8,6.5,2.6,10.3,2.6c3,0,5.8-0.6,8.4-1.7c2.6-1.1,4.8-2.8,6.6-4.9l-5.8-5.8c-1.1,1.3-2.5,2.3-4,3
		c-1.6,0.7-3.3,1-5.2,1c-2.2,0-4.1-0.5-5.8-1.5c-1.7-1-3-2.3-3.9-4.1c-0.9-1.7-1.4-3.7-1.4-6c0-2.3,0.5-4.3,1.4-6
		C219.2,29.8,220.5,28.5,222.2,27.5z"/>
	<path class="st0" d="M281.8,26.8c-1.6-2.9-3.7-5.1-6.5-6.8c-2.7-1.7-5.9-2.5-9.5-2.5c-3.7,0-7,0.9-10,2.6c-3,1.8-5.4,4.1-7.2,7.2
		c-1.8,3-2.6,6.4-2.6,10.2s0.9,7.2,2.7,10.2c1.8,3,4.2,5.4,7.3,7.2c3.1,1.7,6.5,2.6,10.4,2.6c3,0,5.8-0.6,8.5-1.7
		c2.7-1.1,4.9-2.8,6.8-5l-5.6-5.7c-1.2,1.3-2.6,2.3-4.3,3c-1.7,0.7-3.5,1-5.5,1c-2.3,0-4.3-0.5-6.1-1.5c-1.8-1-3.1-2.4-4.1-4.2
		c-0.5-0.9-0.8-1.8-1-2.8h28.6c0.2-0.8,0.3-1.5,0.4-2.2c0.1-0.7,0.1-1.3,0.1-2C284.2,32.9,283.4,29.7,281.8,26.8z M255.1,33.6
		c0.2-0.9,0.5-1.8,0.9-2.5c0.9-1.7,2.2-3.1,3.8-4c1.7-1,3.6-1.4,5.8-1.4c2.1,0,3.9,0.4,5.4,1.3c1.5,0.9,2.6,2.1,3.4,3.7
		c0.4,0.9,0.8,1.9,1,3H255.1z"/>
	<path class="st0" d="M107.5,20.9c-0.4-0.3-0.7-0.5-1.1-0.8c-3-1.8-6.5-2.6-10.2-2.6c-3.7,0-7.1,0.9-10.2,2.7
		c-3,1.8-5.5,4.2-7.2,7.2c-1.8,3-2.7,6.3-2.7,10.1c0,3.7,0.9,7.1,2.7,10.2c1.8,3,4.2,5.5,7.2,7.2c3,1.8,6.4,2.7,10.2,2.7
		c3.8,0,7.2-0.9,10.2-2.7c3-1.8,5.5-4.2,7.2-7.2c1.7-2.9,2.6-6.1,2.7-9.7h0V18.3h-8.7V20.9z M105.8,43.4c-0.9,1.8-2.2,3.1-3.9,4.1
		c-1.7,1-3.6,1.5-5.8,1.5c-2.1,0-4-0.5-5.7-1.5c-1.7-1-3-2.4-3.9-4.1c-0.9-1.8-1.4-3.8-1.4-6c0-2.2,0.5-4.2,1.4-5.9
		c0.9-1.7,2.2-3.1,3.9-4c1.7-1,3.6-1.5,5.7-1.5c2.2,0,4.1,0.5,5.8,1.5c1.7,1,3,2.3,3.9,4c1,1.7,1.4,3.7,1.4,5.9
		C107.2,39.7,106.8,41.7,105.8,43.4z"/>
	<path class="st0" d="M86,74.6c3,1.8,6.4,2.7,10.2,2.7c3.8,0,7.2-0.9,10.2-2.7c3-1.8,5.5-4.2,7.2-7.2c1.4-2.4,2.2-4.9,2.5-7.7
		l-9.3,1.8c-0.2,0.7-0.5,1.3-0.8,1.9c-1,1.8-2.3,3.2-4,4.2c-1.7,1-3.7,1.5-5.9,1.5c-2.2,0-4.1-0.5-5.8-1.5c-1.1-0.6-2-1.5-2.8-2.4
		l-9,1.7c0.1,0.2,0.2,0.4,0.3,0.6C80.5,70.4,82.9,72.8,86,74.6z"/>
</g>
</svg>
